<?xml version="1.0" encoding="UTF-8" standalone="no"?>
<svg
   version="1.1"
   width="630.59467"
   height="630.59467"
   viewBox="0 0 630.59467 630.59467"
   id="svg195"
   sodipodi:docname="logo-color-amdc.svg"
   inkscape:version="1.2.2 (b0a8486541, 2022-12-01)"
   xmlns:inkscape="http://www.inkscape.org/namespaces/inkscape"
   xmlns:sodipodi="http://sodipodi.sourceforge.net/DTD/sodipodi-0.dtd"
   xmlns="http://www.w3.org/2000/svg"
   xmlns:svg="http://www.w3.org/2000/svg">
  <defs
     id="defs199" />
  <sodipodi:namedview
     id="namedview197"
     pagecolor="#ffffff"
     bordercolor="#000000"
     borderopacity="0.25"
     inkscape:showpageshadow="2"
     inkscape:pageopacity="0.0"
     inkscape:pagecheckerboard="0"
     inkscape:deskcolor="#d1d1d1"
     showgrid="false"
     inkscape:zoom="0.52133333"
     inkscape:cx="317.45524"
     inkscape:cy="316.49616"
     inkscape:window-width="1920"
     inkscape:window-height="1011"
     inkscape:window-x="0"
     inkscape:window-y="0"
     inkscape:window-maximized="1"
     inkscape:current-layer="svg195" />
  <rect
     width="630.59467"
     height="630.59467"
     fill="#ffffff"
     id="rect132"
     x="0"
     y="0"
     style="stroke-width:0.420397"
     inkscape:export-filename="rect132.png"
     inkscape:export-xdpi="9.1342363"
     inkscape:export-ydpi="9.1342363" />
  <g
     transform="matrix(0.66666667,0,0,0.66666667,-184.33467,4.6086797)"
     id="g193">
    <svg
       viewBox="0 0 396 247"
       data-background-color="#ffffff"
       preserveAspectRatio="xMidYMid"
       height="935"
       width="1500"
       version="1.1"
       id="svg191">
      <g
         id="tight-bounds"
         transform="translate(0.24,-0.1)">
        <svg
           viewBox="0 0 395.52 247.2"
           height="247.2"
           width="395.51999"
           version="1.1"
           id="svg186">
          <g
             id="g136">
            <svg
               version="1.1"
               id="svg134"
               width="100%"
               height="100%" />
          </g>
          <g
             id="g182">
            <svg
               viewBox="0 0 395.52 247.2"
               height="247.2"
               width="395.51999"
               version="1.1"
               id="svg180">
              <g
                 transform="translate(75.54432,53.201655)"
                 id="g174">
                <svg
                   viewBox="0 0 244.43136 140.79669"
                   height="140.79669"
                   width="244.43137"
                   version="1.1"
                   id="svg172">
                  <g
                     id="g170">
                    <svg
                       viewBox="0 0 244.43136 140.79669"
                       height="140.79669"
                       width="244.43137"
                       version="1.1"
                       id="svg168">
                      <g
                         id="g166">
                        <svg
                           viewBox="0 0 244.43136 140.79669"
                           height="140.79669"
                           width="244.43137"
                           version="1.1"
                           id="svg164">
                          <g
                             id="g160">
                            <svg
                               viewBox="0 0 244.43136 140.79669"
                               height="140.79669"
                               width="244.43137"
                               version="1.1"
                               id="svg158">
                              <g
                                 id="textblocktransform">
                                <svg
                                   viewBox="0 0 244.43136 140.79669"
                                   height="140.79669"
                                   width="244.43137"
                                   id="textblock"
                                   version="1.1">
                                <g
                                   id="g145">
                                <svg
                                   viewBox="0 0 244.43136 84.037287"
                                   height="84.037285"
                                   width="244.43137"
                                   version="1.1"
                                   id="svg143">
                                <g
                                   id="g141">
                                <svg
                                   width="244.43137"
                                   viewBox="-3.5233342 -35.74 105.08759 36.13"
                                   height="84.037285"
                                   data-palette-color="#4e9d88"
                                   version="1.1"
                                   id="svg139">
                                <path
                                   d="m 16.58,-27.88 -6.16,12.55 h 5.3 z M 15.33,-9.52 H 7.57 l -4.2,8.59 Q 2.81,0.15 1.51,0.05 v 0 l -3.8,-0.15 q -0.03,0 -0.1,0 v 0 q -1.57,-0.12 -0.98,-1.8 v 0 l 16.31,-31.4 q 0.17,-0.34 0.41,-0.68 v 0 q 0.96,-1.27 2.28,-1.27 v 0 l 5.61,-0.05 q 0.46,-0.03 0.85,0.14 v 0 q 1.13,0.52 1.05,2.2 v 0 l -1.8,31.89 Q 21.19,-0.05 19.87,0 v 0 h -3.95 q -0.17,0 -0.34,-0.02 v 0 q -0.93,-0.2 -0.79,-1.3 v 0 z m 9.06,8.01 8.35,-32.77 q 0.29,-1.05 1.46,-1.07 v 0 h 4.69 q 0.15,0 0.32,0.02 v 0 q 0.73,0.12 0.85,1.1 v 0 q 0.88,9.52 0.56,16.92 v 0 l 9.94,-17.11 q 0.05,-0.08 0.1,-0.17 v 0 q 0.51,-0.76 1.36,-0.76 v 0 h 4.69 q 0.32,0 0.56,0.14 v 0 q 0.64,0.42 0.42,1.37 v 0 L 49.34,-1.07 Q 49.05,-0.02 47.87,0 v 0 h -4.15 q -0.31,0 -0.56,-0.15 v 0 q -0.63,-0.41 -0.41,-1.36 v 0 l 3.78,-14.87 -3.2,5.3 q -0.02,0.04 -0.07,0.12 v 0 q -1.29,2.12 -3.05,2.12 v 0 l -3.23,-0.34 q -1.66,-0.22 -1.56,-1.95 v 0 q 0.22,-3.37 0.08,-7.69 v 0 L 30.98,-1.07 Q 30.69,-0.02 29.51,0 V 0 H 25.36 Q 25.05,0 24.8,-0.15 v 0 Q 24.17,-0.56 24.39,-1.51 Z M 69.5,-29.32 v 0 q 0,0 -5.91,23.17 v 0 q 0.44,0.05 1.71,0.05 v 0 q 3.37,-0.03 6.06,-10.55 v 0 q 1.14,-4.66 1.07,-8.33 v 0 q -0.1,-3.73 -1.46,-4.12 v 0 q -0.52,-0.15 -1.47,-0.22 z m -13.57,26.78 6.78,-26.54 q -0.56,0.08 -1.07,0.17 v 0 q -1.24,0.25 -1.37,0.25 v 0 q -0.24,0 -0.46,-0.1 v 0 q -0.71,-0.29 -0.56,-1.27 v 0 l 0.49,-3.86 q 0.14,-0.7 1.12,-0.97 v 0 q 0.05,0 0.15,-0.03 v 0 q 3.8,-0.8 8.15,-0.8 v 0 q 3.25,0 5.52,1.12 v 0 q 4.78,2.37 4.78,9.33 v 0 q 0,4.37 -1.56,10.35 v 0 q -1,3.78 -2.47,6.74 v 0 Q 71.26,0.2 64.13,0.2 v 0 q -0.15,0 -0.34,0 v 0 q -4.76,0 -6.59,-0.35 v 0 q -0.32,-0.07 -0.56,-0.17 v 0 q -1.15,-0.49 -0.71,-2.22 z m 45.63,-23.53 v 0 q 0.07,0.87 -1.01,1.31 v 0 l -4.29,1.27 q -0.34,0.1 -0.78,-0.05 v 0 q -0.74,-0.29 -0.79,-1.07 v 0 q -0.04,-0.56 -0.09,-1.02 v 0 q -0.2,-1.74 -0.93,-3.57 v 0 q -0.29,-0.1 -0.59,-0.1 v 0 q -3,0.03 -5.86,10.94 v 0 q -1.29,4.96 -1.29,8.5 v 0 q 0,3.93 1.25,4.29 v 0 h 0.43 q 0.44,-0.31 0.86,-0.73 v 0 q 1,-1.05 2.71,-4.34 v 0 q 0.34,-0.66 0.61,-0.96 v 0 q 0.46,-0.48 1.39,-0.07 v 0 l 4,1.76 q 0.22,0.1 0.37,0.32 v 0 q 0.39,0.65 -0.22,1.63 v 0 Q 94.74,-3.81 92.64,-2 v 0 q -2.78,2.39 -6.73,2.39 v 0 q -1.47,0 -3.13,-1.02 v 0 q -1.73,-1.1 -2.73,-3.23 v 0 Q 78.9,-6.4 78.9,-10.18 v 0 q 0,-4.15 1.39,-9.74 v 0 q 1.71,-6.81 4.76,-10.77 v 0 q 3.91,-5.05 8.42,-5.05 v 0 q 4.33,0 6.28,3.17 v 0 q 1.46,2.37 1.81,6.5 z"
                                   opacity="1"
                                   fill="#4e9d88"
                                   class="wordmark-text-0"
                                   data-fill-palette-color="primary"
                                   id="text-0" />
                                </svg>
                                </g>
                                </svg>
                                </g>
                                <g
                                   transform="translate(0,103.87647)"
                                   id="g154">
                                <svg
                                   viewBox="0 0 244.43136 36.920217"
                                   height="36.920216"
                                   width="244.43137"
                                   version="1.1"
                                   id="svg152">
                                <g
                                   id="g150">
                                <svg
                                   width="244.43137"
                                   viewBox="3.15 -31.7 212.82 32.15"
                                   height="36.920216"
                                   data-palette-color="#636365"
                                   version="1.1"
                                   id="svg148">
                                <path
                                   d="M 6,0 H 3.15 v -29.55 h 3.7 l 6.4,24.05 6.55,-24.05 h 3.55 V 0 h -2.8 V -23.9 L 14.4,0 H 12.15 L 6,-23.9 Z m 29.35,0.35 v 0 q -2.3,0 -3.83,-0.63 Q 30,-0.9 29.27,-2.5 28.55,-4.1 28.55,-6.9 v 0 -11.55 q 0,-3.6 1.57,-5.15 1.58,-1.55 5.23,-1.55 v 0 q 3.65,0 5.22,1.5 1.58,1.5 1.58,5.2 v 0 11.55 q 0,2.8 -0.7,4.37 -0.7,1.58 -2.2,2.23 -1.5,0.65 -3.9,0.65 z m 0,-1.95 v 0 q 2,0 2.85,-1 0.85,-1 0.85,-3.65 v 0 -12.35 q 0,-2.45 -0.8,-3.53 -0.8,-1.07 -2.9,-1.07 v 0 q -1.95,0 -2.83,1.02 -0.87,1.03 -0.87,3.58 v 0 12.35 q 0,2.6 0.87,3.62 0.88,1.03 2.83,1.03 z m 18.8,1.95 v 0 q -2.35,0 -3.48,-0.83 -1.12,-0.82 -1.52,-1.82 v 0 L 49,0 h -2.2 v -31.5 h 3.05 v 8.8 q 0.6,-1.25 1.77,-1.88 1.18,-0.62 2.98,-0.62 v 0 q 1.9,0 3.2,0.6 1.3,0.6 1.95,1.95 0.65,1.35 0.65,3.75 v 0 12.25 q 0,2.05 -0.38,3.4 -0.37,1.35 -1.12,2.15 -0.75,0.8 -1.93,1.13 -1.17,0.32 -2.82,0.32 z m -0.55,-2.2 v 0 q 1.4,0 2.2,-0.4 0.8,-0.4 1.15,-1.38 0.35,-0.97 0.35,-2.72 v 0 -12.45 q 0,-2.5 -0.83,-3.4 -0.82,-0.9 -2.87,-0.9 v 0 q -2.1,0 -2.9,1.05 -0.8,1.05 -0.8,3.05 v 0 12.35 q 0,2.55 0.87,3.67 0.88,1.13 2.83,1.13 z M 68.09,0 h -3.05 v -24.75 h 3.05 z m -1.5,-27.8 v 0 q -0.75,0 -1.27,-0.53 -0.53,-0.52 -0.53,-1.22 v 0 q 0,-0.75 0.53,-1.23 0.52,-0.47 1.27,-0.47 v 0 q 0.7,0 1.25,0.47 0.55,0.48 0.55,1.23 v 0 q 0,0.7 -0.55,1.22 -0.55,0.53 -1.25,0.53 z M 76.44,0 h -3.05 v -31.7 h 3.05 z m 8.35,0 h -3.05 v -24.75 h 3.05 z m -1.5,-27.8 v 0 q -0.75,0 -1.28,-0.53 -0.52,-0.52 -0.52,-1.22 v 0 q 0,-0.75 0.52,-1.23 0.53,-0.47 1.28,-0.47 v 0 q 0.7,0 1.25,0.47 0.55,0.48 0.55,1.23 v 0 q 0,0.7 -0.55,1.22 -0.55,0.53 -1.25,0.53 z M 95.44,0.05 v 0 q -1.1,0 -2,-0.25 -0.91,-0.25 -1.55,-0.83 -0.66,-0.57 -1,-1.5 -0.36,-0.92 -0.36,-2.32 v 0 -17.95 h -2.19 v -1.6 l 2.39,-0.35 0.55,-4.65 h 2.36 v 4.65 h 5.34 v 1.95 h -5.34 v 17.4 q 0,1.4 0.5,2.35 0.5,0.95 2.2,0.95 v 0 q 0.69,0 1.5,-0.08 0.8,-0.07 1.14,-0.07 v 0 2 q -0.39,0 -1.39,0.15 -1,0.15 -2.15,0.15 z m 13.09,0.4 v 0 q -2.5,0 -4.05,-0.58 -1.55,-0.57 -2.25,-2.12 -0.7,-1.55 -0.7,-4.5 v 0 -12.35 q 0,-3.5 1.58,-4.8 1.57,-1.3 5.22,-1.3 v 0 q 3.55,0 5.13,1.3 1.57,1.3 1.57,4.8 v 0 6.4 h -10.4 v 7 q 0,2.4 0.75,3.32 0.75,0.93 3.05,0.93 v 0 q 2.1,0 2.8,-0.9 0.7,-0.9 0.7,-3.35 v 0 -3.2 h 3.1 v 2.1 q 0,2.9 -0.7,4.47 -0.7,1.58 -2.12,2.18 -1.43,0.6 -3.68,0.6 z m -3.9,-19.65 v 4.9 h 7.3 v -4.9 q 0,-2.1 -0.7,-3.05 -0.7,-0.95 -2.9,-0.95 v 0 q -2.2,0 -2.95,0.95 -0.75,0.95 -0.75,3.05 z M 137.68,0 h -8.45 v -29.55 h 8.85 q 1.9,0 3.27,0.55 1.38,0.55 2.1,1.87 0.73,1.33 0.73,3.63 v 0 17.05 q 0,2.55 -0.8,3.95 -0.8,1.4 -2.28,1.95 Q 139.63,0 137.68,0 Z m -5.2,-27.65 V -1.8 h 4.8 q 1.7,0 2.72,-0.93 1.03,-0.92 1.03,-3.57 v 0 -16.8 q 0,-2.65 -1.03,-3.6 -1.02,-0.95 -2.72,-0.95 v 0 z m 23.25,28 v 0 q -2.3,0 -3.83,-0.63 -1.52,-0.62 -2.25,-2.22 -0.72,-1.6 -0.72,-4.4 v 0 -11.55 q 0,-3.6 1.57,-5.15 1.58,-1.55 5.23,-1.55 v 0 q 3.65,0 5.22,1.5 1.58,1.5 1.58,5.2 v 0 11.55 q 0,2.8 -0.7,4.37 -0.7,1.58 -2.2,2.23 -1.5,0.65 -3.9,0.65 z m 0,-1.95 v 0 q 2,0 2.85,-1 0.85,-1 0.85,-3.65 v 0 -12.35 q 0,-2.45 -0.8,-3.53 -0.8,-1.07 -2.9,-1.07 v 0 q -1.95,0 -2.83,1.02 -0.87,1.03 -0.87,3.58 v 0 12.35 q 0,2.6 0.87,3.62 0.88,1.03 2.83,1.03 z m 16.89,2 v 0 q -2.6,0 -3.85,-0.93 -1.25,-0.92 -1.6,-2.42 -0.35,-1.5 -0.35,-3.2 v 0 -18.6 h 3.1 v 18.2 q 0,1.1 0.13,2.17 0.12,1.08 0.92,1.75 0.8,0.68 2.65,0.68 v 0 q 1.3,0 2.05,-0.45 0.75,-0.45 1.15,-1.08 0.4,-0.62 0.5,-1.12 v 0 -20.15 h 3.1 V 0 h -2.65 l -0.25,-2.7 q -0.4,1.2 -1.62,2.15 -1.23,0.95 -3.28,0.95 z m 19.45,0.05 v 0 q -2.45,0 -4,-0.58 -1.55,-0.57 -2.25,-2.1 -0.7,-1.52 -0.7,-4.47 v 0 -12.2 q 0,-3.65 1.58,-4.98 1.57,-1.32 5.22,-1.32 v 0 q 3.55,0 5.13,1.3 1.57,1.3 1.57,4.8 v 0 3.25 h -3.1 v -3.35 q 0,-2.15 -0.7,-3.13 -0.7,-0.97 -2.9,-0.97 v 0 q -2.2,0 -2.95,0.97 -0.75,0.98 -0.75,3.13 v 0 13.3 q 0,2.4 0.75,3.37 0.75,0.98 3.05,0.98 v 0 q 2.1,0 2.8,-0.95 0.7,-0.95 0.7,-3.4 v 0 -3.35 h 3.1 v 2.55 q 0,2.85 -0.7,4.4 -0.7,1.55 -2.15,2.15 -1.45,0.6 -3.7,0.6 z m 17.4,0 v 0 q -2.5,0 -4.05,-0.58 -1.55,-0.57 -2.25,-2.12 -0.7,-1.55 -0.7,-4.5 v 0 -12.35 q 0,-3.5 1.57,-4.8 1.58,-1.3 5.23,-1.3 v 0 q 3.55,0 5.12,1.3 1.58,1.3 1.58,4.8 v 0 6.4 h -10.4 v 7 q 0,2.4 0.75,3.32 0.75,0.93 3.05,0.93 v 0 q 2.1,0 2.8,-0.9 0.7,-0.9 0.7,-3.35 v 0 -3.2 h 3.1 v 2.1 q 0,2.9 -0.7,4.47 -0.7,1.58 -2.13,2.18 -1.42,0.6 -3.67,0.6 z m -3.9,-19.65 v 4.9 h 7.3 v -4.9 q 0,-2.1 -0.7,-3.05 -0.7,-0.95 -2.9,-0.95 v 0 q -2.2,0 -2.95,0.95 -0.75,0.95 -0.75,3.05 z"
                                   opacity="1"
                                   fill="#636365"
                                   class="slogan-text-1"
                                   data-fill-palette-color="secondary"
                                   id="text-1" />
                                </svg>
                                </g>
                                </svg>
                                </g>
                                </svg>
                              </g>
                            </svg>
                          </g>
                          <g
                             id="g162" />
                        </svg>
                      </g>
                    </svg>
                  </g>
                </svg>
              </g>
              <g
                 id="g178">
                <path
                   d="m 115.335,33.362 a 122.216,122.216 0 0 1 164.85,0 h -7.579 a 114.637,114.637 0 0 0 -149.692,0 h -7.579 m 0,180.476 a 122.216,122.216 0 0 0 164.85,0 h -7.579 a 114.637,114.637 0 0 1 -149.692,0 h -7.579"
                   fill="#919591"
                   stroke="transparent"
                   data-fill-palette-color="tertiary"
                   id="path176" />
              </g>
            </svg>
          </g>
          <defs
             id="defs184" />
        </svg>
        <rect
           width="395.51999"
           height="247.2"
           fill="none"
           stroke="none"
           visibility="hidden"
           id="rect188"
           x="0"
           y="0" />
      </g>
    </svg>
  </g>
</svg>
